<?xml version="1.0" encoding="utf-8"?>
<!-- Generator: Adobe Illustrator 24.0.3, SVG Export Plug-In . SVG Version: 6.00 Build 0)  -->
<svg version="1.1" id="레이어_1" xmlns="http://www.w3.org/2000/svg" xmlns:xlink="http://www.w3.org/1999/xlink" x="0px"
	 y="0px" viewBox="0 0 36.7 36.7" style="enable-background:new 0 0 36.7 36.7;" xml:space="preserve">
<style type="text/css">
	.st0{fill:#CBCBCB;}
</style>
<path class="st0" d="M14.7,29.3C6.6,29.3,0,22.8,0,14.7C0,6.6,6.6,0,14.7,0c8.1,0,14.7,6.6,14.7,14.7C29.3,22.8,22.8,29.3,14.7,29.3
	z M14.7,3.7c-6.1,0-11,4.9-11,11s4.9,11,11,11c6.1,0,11-4.9,11-11S20.7,3.7,14.7,3.7z"/>
<path class="st0" d="M34.8,36.7c-0.5,0-0.9-0.2-1.3-0.5l-11-11c-0.7-0.7-0.7-1.9,0-2.6c0.7-0.7,1.9-0.7,2.6,0l11,11
	c0.7,0.7,0.7,1.9,0,2.6C35.8,36.5,35.3,36.7,34.8,36.7z"/>
</svg>
